<svg width="18" height="18" viewBox="0 0 18 18" fill="none" xmlns="http://www.w3.org/2000/svg">
<path d="M14.25 16.5H3.75C2.92157 16.5 2.25 15.8284 2.25 15V4.5C2.25 3.67157 2.92157 3 3.75 3H5.25V1.5H6.75V3H11.25V1.5H12.75V3H14.25C15.0784 3 15.75 3.67157 15.75 4.5V15C15.75 15.8284 15.0784 16.5 14.25 16.5ZM3.75 7.5V15H14.25V7.5H3.75ZM3.75 4.5V6H14.25V4.5H3.75ZM12.75 13.5H11.25V12H12.75V13.5ZM9.75 13.5H8.25V12H9.75V13.5ZM6.75 13.5H5.25V12H6.75V13.5ZM12.75 10.5H11.25V9H12.75V10.5ZM9.75 10.5H8.25V9H9.75V10.5ZM6.75 10.5H5.25V9H6.75V10.5Z" fill="#D4C4ED"/>
</svg>
